<svg width="46" height="46" fill="#457ff2" viewBox="0 0 24 24" xmlns="http://www.w3.org/2000/svg">
  <path d="M12 12c-.631 0-1.263-.112-1.755-.336L3.308 8.5C2.99 8.356 2.25 7.934 2.25 7.136c0-.797.74-1.218 1.058-1.365l6.998-3.19c.964-.441 2.42-.441 3.384 0l7.002 3.19c.318.145 1.058.567 1.058 1.365s-.74 1.219-1.058 1.365l-6.938 3.163c-.491.224-1.123.336-1.754.336Z"></path>
  <path d="m20.689 10.632-.708-.32-1.817.832-4.406 2.016c-.492.225-1.125.337-1.755.337-.63 0-1.262-.112-1.754-.337l-4.41-2.016-1.818-.832-.713.321c-.318.145-1.058.57-1.058 1.367s.74 1.223 1.058 1.367l6.937 3.17c.49.226 1.122.338 1.755.338.633 0 1.263-.113 1.755-.337l6.931-3.17c.32-.144 1.064-.567 1.064-1.368 0-.801-.74-1.222-1.061-1.368Z"></path>
  <path d="m20.689 15.506-.708-.319-1.817.832-4.406 2.013c-.492.224-1.125.336-1.755.336-.63 0-1.262-.112-1.754-.336l-4.41-2.016-1.818-.828-.713.32c-.318.145-1.058.57-1.058 1.367s.74 1.222 1.058 1.366l6.937 3.169c.49.224 1.124.34 1.755.34.63 0 1.26-.116 1.752-.34l6.934-3.168c.32-.145 1.064-.567 1.064-1.367s-.74-1.222-1.061-1.369Z"></path>
</svg>